<svg xmlns="http://www.w3.org/2000/svg" viewBox="0 0 512 512" role="img" aria-label="kept seal">
  <path d="M 480.00,256.00 L 479.98,256.98 L 479.91,257.95 L 479.81,258.93 L 479.66,259.90 L 479.47,260.88 L 479.24,261.85 L 478.97,262.81 L 478.65,263.78 L 478.30,264.73 L 477.91,265.69 L 477.49,266.64 L 477.02,267.58 L 476.52,268.52 L 475.99,269.46 L 475.43,270.38 L 474.83,271.30 L 474.21,272.22 L 473.56,273.12 L 472.88,274.02 L 472.17,274.91 L 471.45,275.80 L 470.70,276.67 L 469.94,277.54 L 469.15,278.40 L 468.35,279.26 L 467.54,280.10 L 466.72,280.94 L 465.89,281.77 L 465.05,282.59 L 464.20,283.41 L 463.36,284.22 L 462.51,285.02 L 461.66,285.82 L 460.81,286.61 L 459.97,287.39 L 459.14,288.17 L 458.32,288.95 L 457.50,289.72 L 456.70,290.49 L 455.92,291.25 L 455.15,292.01 L 454.39,292.77 L 453.66,293.53 L 452.95,294.28 L 452.26,295.04 L 451.59,295.79 L 450.95,296.55 L 450.33,297.31 L 449.74,298.07 L 449.19,298.83 L 448.66,299.59 L 448.16,300.36 L 447.69,301.14 L 447.25,301.92 L 446.85,302.70 L 446.47,303.49 L 446.14,304.29 L 445.83,305.09 L 445.56,305.91 L 445.32,306.73 L 445.12,307.56 L 444.95,308.40 L 444.81,309.25 L 444.70,310.11 L 444.63,310.98 L 444.59,311.86 L 444.57,312.75 L 444.59,313.66 L 444.64,314.57 L 444.72,315.50 L 444.82,316.44 L 444.95,317.39 L 445.10,318.36 L 445.28,319.33 L 445.48,320.32 L 445.70,321.32 L 445.94,322.33 L 446.20,323.35 L 446.47,324.39 L 446.76,325.43 L 447.06,326.48 L 447.37,327.55 L 447.69,328.62 L 448.01,329.71 L 448.34,330.80 L 448.68,331.90 L 449.02,333.01 L 449.35,334.12 L 449.69,335.24 L 450.01,336.36 L 450.34,337.49 L 450.65,338.63 L 450.96,339.76 L 451.25,340.90 L 451.53,342.04 L 451.80,343.17 L 452.04,344.31 L 452.27,345.45 L 452.48,346.58 L 452.67,347.71 L 452.83,348.83 L 452.97,349.95 L 453.08,351.06 L 453.17,352.16 L 453.22,353.26 L 453.25,354.34 L 453.24,355.42 L 453.20,356.48 L 453.13,357.53 L 453.03,358.57 L 452.89,359.59 L 452.71,360.59 L 452.50,361.58 L 452.25,362.56 L 451.97,363.51 L 451.65,364.45 L 451.29,365.37 L 450.89,366.27 L 450.46,367.14 L 449.99,368.00 L 449.48,368.84 L 448.94,369.65 L 448.36,370.44 L 447.74,371.21 L 447.09,371.96 L 446.41,372.68 L 445.69,373.38 L 444.94,374.06 L 444.15,374.72 L 443.34,375.35 L 442.49,375.96 L 441.62,376.54 L 440.72,377.11 L 439.79,377.65 L 438.84,378.17 L 437.86,378.67 L 436.87,379.15 L 435.85,379.61 L 434.81,380.05 L 433.76,380.47 L 432.69,380.87 L 431.60,381.25 L 430.50,381.62 L 429.39,381.98 L 428.28,382.32 L 427.15,382.64 L 426.02,382.96 L 424.88,383.26 L 423.74,383.56 L 422.60,383.84 L 421.47,384.12 L 420.33,384.39 L 419.20,384.65 L 418.07,384.92 L 416.95,385.18 L 415.84,385.43 L 414.74,385.69 L 413.65,385.95 L 412.57,386.22 L 411.51,386.49 L 410.46,386.76 L 409.43,387.04 L 408.41,387.33 L 407.42,387.63 L 406.44,387.94 L 405.49,388.26 L 404.55,388.59 L 403.64,388.94 L 402.75,389.30 L 401.89,389.68 L 401.05,390.08 L 400.23,390.50 L 399.44,390.93 L 398.67,391.39 L 397.93,391.87 L 397.21,392.37 L 396.52,392.89 L 395.85,393.43 L 395.21,394.00 L 394.59,394.59 L 394.00,395.21 L 393.43,395.85 L 392.89,396.52 L 392.37,397.21 L 391.87,397.93 L 391.39,398.67 L 390.93,399.44 L 390.50,400.23 L 390.08,401.05 L 389.68,401.89 L 389.30,402.75 L 388.94,403.64 L 388.59,404.55 L 388.26,405.49 L 387.94,406.44 L 387.63,407.42 L 387.33,408.41 L 387.04,409.43 L 386.76,410.46 L 386.49,411.51 L 386.22,412.57 L 385.95,413.65 L 385.69,414.74 L 385.43,415.84 L 385.18,416.95 L 384.92,418.07 L 384.65,419.20 L 384.39,420.33 L 384.12,421.47 L 383.84,422.60 L 383.56,423.74 L 383.26,424.88 L 382.96,426.02 L 382.64,427.15 L 382.32,428.28 L 381.98,429.39 L 381.62,430.50 L 381.25,431.60 L 380.87,432.69 L 380.47,433.76 L 380.05,434.81 L 379.61,435.85 L 379.15,436.87 L 378.67,437.86 L 378.17,438.84 L 377.65,439.79 L 377.11,440.72 L 376.54,441.62 L 375.96,442.49 L 375.35,443.34 L 374.72,444.15 L 374.06,444.94 L 373.38,445.69 L 372.68,446.41 L 371.96,447.09 L 371.21,447.74 L 370.44,448.36 L 369.65,448.94 L 368.84,449.48 L 368.00,449.99 L 367.14,450.46 L 366.27,450.89 L 365.37,451.29 L 364.45,451.65 L 363.51,451.97 L 362.56,452.25 L 361.58,452.50 L 360.59,452.71 L 359.59,452.89 L 358.57,453.03 L 357.53,453.13 L 356.48,453.20 L 355.42,453.24 L 354.34,453.25 L 353.26,453.22 L 352.16,453.17 L 351.06,453.08 L 349.95,452.97 L 348.83,452.83 L 347.71,452.67 L 346.58,452.48 L 345.45,452.27 L 344.31,452.04 L 343.17,451.80 L 342.04,451.53 L 340.90,451.25 L 339.76,450.96 L 338.63,450.65 L 337.49,450.34 L 336.36,450.01 L 335.24,449.69 L 334.12,449.35 L 333.01,449.02 L 331.90,448.68 L 330.80,448.34 L 329.71,448.01 L 328.62,447.69 L 327.55,447.37 L 326.48,447.06 L 325.43,446.76 L 324.39,446.47 L 323.35,446.20 L 322.33,445.94 L 321.32,445.70 L 320.32,445.48 L 319.33,445.28 L 318.36,445.10 L 317.39,444.95 L 316.44,444.82 L 315.50,444.72 L 314.57,444.64 L 313.66,444.59 L 312.75,444.57 L 311.86,444.59 L 310.98,444.63 L 310.11,444.70 L 309.25,444.81 L 308.40,444.95 L 307.56,445.12 L 306.73,445.32 L 305.91,445.56 L 305.09,445.83 L 304.29,446.14 L 303.49,446.47 L 302.70,446.85 L 301.92,447.25 L 301.14,447.69 L 300.36,448.16 L 299.59,448.66 L 298.83,449.19 L 298.07,449.74 L 297.31,450.33 L 296.55,450.95 L 295.79,451.59 L 295.04,452.26 L 294.28,452.95 L 293.53,453.66 L 292.77,454.39 L 292.01,455.15 L 291.25,455.92 L 290.49,456.70 L 289.72,457.50 L 288.95,458.32 L 288.17,459.14 L 287.39,459.97 L 286.61,460.81 L 285.82,461.66 L 285.02,462.51 L 284.22,463.36 L 283.41,464.20 L 282.59,465.05 L 281.77,465.89 L 280.94,466.72 L 280.10,467.54 L 279.26,468.35 L 278.40,469.15 L 277.54,469.94 L 276.67,470.70 L 275.80,471.45 L 274.91,472.17 L 274.02,472.88 L 273.12,473.56 L 272.22,474.21 L 271.30,474.83 L 270.38,475.43 L 269.46,475.99 L 268.52,476.52 L 267.58,477.02 L 266.64,477.49 L 265.69,477.91 L 264.73,478.30 L 263.78,478.65 L 262.81,478.97 L 261.85,479.24 L 260.88,479.47 L 259.90,479.66 L 258.93,479.81 L 257.95,479.91 L 256.98,479.98 L 256.00,480.00 L 255.02,479.98 L 254.05,479.91 L 253.07,479.81 L 252.10,479.66 L 251.12,479.47 L 250.15,479.24 L 249.19,478.97 L 248.22,478.65 L 247.27,478.30 L 246.31,477.91 L 245.36,477.49 L 244.42,477.02 L 243.48,476.52 L 242.54,475.99 L 241.62,475.43 L 240.70,474.83 L 239.78,474.21 L 238.88,473.56 L 237.98,472.88 L 237.09,472.17 L 236.20,471.45 L 235.33,470.70 L 234.46,469.94 L 233.60,469.15 L 232.74,468.35 L 231.90,467.54 L 231.06,466.72 L 230.23,465.89 L 229.41,465.05 L 228.59,464.20 L 227.78,463.36 L 226.98,462.51 L 226.18,461.66 L 225.39,460.81 L 224.61,459.97 L 223.83,459.14 L 223.05,458.32 L 222.28,457.50 L 221.51,456.70 L 220.75,455.92 L 219.99,455.15 L 219.23,454.39 L 218.47,453.66 L 217.72,452.95 L 216.96,452.26 L 216.21,451.59 L 215.45,450.95 L 214.69,450.33 L 213.93,449.74 L 213.17,449.19 L 212.41,448.66 L 211.64,448.16 L 210.86,447.69 L 210.08,447.25 L 209.30,446.85 L 208.51,446.47 L 207.71,446.14 L 206.91,445.83 L 206.09,445.56 L 205.27,445.32 L 204.44,445.12 L 203.60,444.95 L 202.75,444.81 L 201.89,444.70 L 201.02,444.63 L 200.14,444.59 L 199.25,444.57 L 198.34,444.59 L 197.43,444.64 L 196.50,444.72 L 195.56,444.82 L 194.61,444.95 L 193.64,445.10 L 192.67,445.28 L 191.68,445.48 L 190.68,445.70 L 189.67,445.94 L 188.65,446.20 L 187.61,446.47 L 186.57,446.76 L 185.52,447.06 L 184.45,447.37 L 183.38,447.69 L 182.29,448.01 L 181.20,448.34 L 180.10,448.68 L 178.99,449.02 L 177.88,449.35 L 176.76,449.69 L 175.64,450.01 L 174.51,450.34 L 173.37,450.65 L 172.24,450.96 L 171.10,451.25 L 169.96,451.53 L 168.83,451.80 L 167.69,452.04 L 166.55,452.27 L 165.42,452.48 L 164.29,452.67 L 163.17,452.83 L 162.05,452.97 L 160.94,453.08 L 159.84,453.17 L 158.74,453.22 L 157.66,453.25 L 156.58,453.24 L 155.52,453.20 L 154.47,453.13 L 153.43,453.03 L 152.41,452.89 L 151.41,452.71 L 150.42,452.50 L 149.44,452.25 L 148.49,451.97 L 147.55,451.65 L 146.63,451.29 L 145.73,450.89 L 144.86,450.46 L 144.00,449.99 L 143.16,449.48 L 142.35,448.94 L 141.56,448.36 L 140.79,447.74 L 140.04,447.09 L 139.32,446.41 L 138.62,445.69 L 137.94,444.94 L 137.28,444.15 L 136.65,443.34 L 136.04,442.49 L 135.46,441.62 L 134.89,440.72 L 134.35,439.79 L 133.83,438.84 L 133.33,437.86 L 132.85,436.87 L 132.39,435.85 L 131.95,434.81 L 131.53,433.76 L 131.13,432.69 L 130.75,431.60 L 130.38,430.50 L 130.02,429.39 L 129.68,428.28 L 129.36,427.15 L 129.04,426.02 L 128.74,424.88 L 128.44,423.74 L 128.16,422.60 L 127.88,421.47 L 127.61,420.33 L 127.35,419.20 L 127.08,418.07 L 126.82,416.95 L 126.57,415.84 L 126.31,414.74 L 126.05,413.65 L 125.78,412.57 L 125.51,411.51 L 125.24,410.46 L 124.96,409.43 L 124.67,408.41 L 124.37,407.42 L 124.06,406.44 L 123.74,405.49 L 123.41,404.55 L 123.06,403.64 L 122.70,402.75 L 122.32,401.89 L 121.92,401.05 L 121.50,400.23 L 121.07,399.44 L 120.61,398.67 L 120.13,397.93 L 119.63,397.21 L 119.11,396.52 L 118.57,395.85 L 118.00,395.21 L 117.41,394.59 L 116.79,394.00 L 116.15,393.43 L 115.48,392.89 L 114.79,392.37 L 114.07,391.87 L 113.33,391.39 L 112.56,390.93 L 111.77,390.50 L 110.95,390.08 L 110.11,389.68 L 109.25,389.30 L 108.36,388.94 L 107.45,388.59 L 106.51,388.26 L 105.56,387.94 L 104.58,387.63 L 103.59,387.33 L 102.57,387.04 L 101.54,386.76 L 100.49,386.49 L 99.43,386.22 L 98.35,385.95 L 97.26,385.69 L 96.16,385.43 L 95.05,385.18 L 93.93,384.92 L 92.80,384.65 L 91.67,384.39 L 90.53,384.12 L 89.40,383.84 L 88.26,383.56 L 87.12,383.26 L 85.98,382.96 L 84.85,382.64 L 83.72,382.32 L 82.61,381.98 L 81.50,381.62 L 80.40,381.25 L 79.31,380.87 L 78.24,380.47 L 77.19,380.05 L 76.15,379.61 L 75.13,379.15 L 74.14,378.67 L 73.16,378.17 L 72.21,377.65 L 71.28,377.11 L 70.38,376.54 L 69.51,375.96 L 68.66,375.35 L 67.85,374.72 L 67.06,374.06 L 66.31,373.38 L 65.59,372.68 L 64.91,371.96 L 64.26,371.21 L 63.64,370.44 L 63.06,369.65 L 62.52,368.84 L 62.01,368.00 L 61.54,367.14 L 61.11,366.27 L 60.71,365.37 L 60.35,364.45 L 60.03,363.51 L 59.75,362.56 L 59.50,361.58 L 59.29,360.59 L 59.11,359.59 L 58.97,358.57 L 58.87,357.53 L 58.80,356.48 L 58.76,355.42 L 58.75,354.34 L 58.78,353.26 L 58.83,352.16 L 58.92,351.06 L 59.03,349.95 L 59.17,348.83 L 59.33,347.71 L 59.52,346.58 L 59.73,345.45 L 59.96,344.31 L 60.20,343.17 L 60.47,342.04 L 60.75,340.90 L 61.04,339.76 L 61.35,338.63 L 61.66,337.49 L 61.99,336.36 L 62.31,335.24 L 62.65,334.12 L 62.98,333.01 L 63.32,331.90 L 63.66,330.80 L 63.99,329.71 L 64.31,328.62 L 64.63,327.55 L 64.94,326.48 L 65.24,325.43 L 65.53,324.39 L 65.80,323.35 L 66.06,322.33 L 66.30,321.32 L 66.52,320.32 L 66.72,319.33 L 66.90,318.36 L 67.05,317.39 L 67.18,316.44 L 67.28,315.50 L 67.36,314.57 L 67.41,313.66 L 67.43,312.75 L 67.41,311.86 L 67.37,310.98 L 67.30,310.11 L 67.19,309.25 L 67.05,308.40 L 66.88,307.56 L 66.68,306.73 L 66.44,305.91 L 66.17,305.09 L 65.86,304.29 L 65.53,303.49 L 65.15,302.70 L 64.75,301.92 L 64.31,301.14 L 63.84,300.36 L 63.34,299.59 L 62.81,298.83 L 62.26,298.07 L 61.67,297.31 L 61.05,296.55 L 60.41,295.79 L 59.74,295.04 L 59.05,294.28 L 58.34,293.53 L 57.61,292.77 L 56.85,292.01 L 56.08,291.25 L 55.30,290.49 L 54.50,289.72 L 53.68,288.95 L 52.86,288.17 L 52.03,287.39 L 51.19,286.61 L 50.34,285.82 L 49.49,285.02 L 48.64,284.22 L 47.80,283.41 L 46.95,282.59 L 46.11,281.77 L 45.28,280.94 L 44.46,280.10 L 43.65,279.26 L 42.85,278.40 L 42.06,277.54 L 41.30,276.67 L 40.55,275.80 L 39.83,274.91 L 39.12,274.02 L 38.44,273.12 L 37.79,272.22 L 37.17,271.30 L 36.57,270.38 L 36.01,269.46 L 35.48,268.52 L 34.98,267.58 L 34.51,266.64 L 34.09,265.69 L 33.70,264.73 L 33.35,263.78 L 33.03,262.81 L 32.76,261.85 L 32.53,260.88 L 32.34,259.90 L 32.19,258.93 L 32.09,257.95 L 32.02,256.98 L 32.00,256.00 L 32.02,255.02 L 32.09,254.05 L 32.19,253.07 L 32.34,252.10 L 32.53,251.12 L 32.76,250.15 L 33.03,249.19 L 33.35,248.22 L 33.70,247.27 L 34.09,246.31 L 34.51,245.36 L 34.98,244.42 L 35.48,243.48 L 36.01,242.54 L 36.57,241.62 L 37.17,240.70 L 37.79,239.78 L 38.44,238.88 L 39.12,237.98 L 39.83,237.09 L 40.55,236.20 L 41.30,235.33 L 42.06,234.46 L 42.85,233.60 L 43.65,232.74 L 44.46,231.90 L 45.28,231.06 L 46.11,230.23 L 46.95,229.41 L 47.80,228.59 L 48.64,227.78 L 49.49,226.98 L 50.34,226.18 L 51.19,225.39 L 52.03,224.61 L 52.86,223.83 L 53.68,223.05 L 54.50,222.28 L 55.30,221.51 L 56.08,220.75 L 56.85,219.99 L 57.61,219.23 L 58.34,218.47 L 59.05,217.72 L 59.74,216.96 L 60.41,216.21 L 61.05,215.45 L 61.67,214.69 L 62.26,213.93 L 62.81,213.17 L 63.34,212.41 L 63.84,211.64 L 64.31,210.86 L 64.75,210.08 L 65.15,209.30 L 65.53,208.51 L 65.86,207.71 L 66.17,206.91 L 66.44,206.09 L 66.68,205.27 L 66.88,204.44 L 67.05,203.60 L 67.19,202.75 L 67.30,201.89 L 67.37,201.02 L 67.41,200.14 L 67.43,199.25 L 67.41,198.34 L 67.36,197.43 L 67.28,196.50 L 67.18,195.56 L 67.05,194.61 L 66.90,193.64 L 66.72,192.67 L 66.52,191.68 L 66.30,190.68 L 66.06,189.67 L 65.80,188.65 L 65.53,187.61 L 65.24,186.57 L 64.94,185.52 L 64.63,184.45 L 64.31,183.38 L 63.99,182.29 L 63.66,181.20 L 63.32,180.10 L 62.98,178.99 L 62.65,177.88 L 62.31,176.76 L 61.99,175.64 L 61.66,174.51 L 61.35,173.37 L 61.04,172.24 L 60.75,171.10 L 60.47,169.96 L 60.20,168.83 L 59.96,167.69 L 59.73,166.55 L 59.52,165.42 L 59.33,164.29 L 59.17,163.17 L 59.03,162.05 L 58.92,160.94 L 58.83,159.84 L 58.78,158.74 L 58.75,157.66 L 58.76,156.58 L 58.80,155.52 L 58.87,154.47 L 58.97,153.43 L 59.11,152.41 L 59.29,151.41 L 59.50,150.42 L 59.75,149.44 L 60.03,148.49 L 60.35,147.55 L 60.71,146.63 L 61.11,145.73 L 61.54,144.86 L 62.01,144.00 L 62.52,143.16 L 63.06,142.35 L 63.64,141.56 L 64.26,140.79 L 64.91,140.04 L 65.59,139.32 L 66.31,138.62 L 67.06,137.94 L 67.85,137.28 L 68.66,136.65 L 69.51,136.04 L 70.38,135.46 L 71.28,134.89 L 72.21,134.35 L 73.16,133.83 L 74.14,133.33 L 75.13,132.85 L 76.15,132.39 L 77.19,131.95 L 78.24,131.53 L 79.31,131.13 L 80.40,130.75 L 81.50,130.38 L 82.61,130.02 L 83.72,129.68 L 84.85,129.36 L 85.98,129.04 L 87.12,128.74 L 88.26,128.44 L 89.40,128.16 L 90.53,127.88 L 91.67,127.61 L 92.80,127.35 L 93.93,127.08 L 95.05,126.82 L 96.16,126.57 L 97.26,126.31 L 98.35,126.05 L 99.43,125.78 L 100.49,125.51 L 101.54,125.24 L 102.57,124.96 L 103.59,124.67 L 104.58,124.37 L 105.56,124.06 L 106.51,123.74 L 107.45,123.41 L 108.36,123.06 L 109.25,122.70 L 110.11,122.32 L 110.95,121.92 L 111.77,121.50 L 112.56,121.07 L 113.33,120.61 L 114.07,120.13 L 114.79,119.63 L 115.48,119.11 L 116.15,118.57 L 116.79,118.00 L 117.41,117.41 L 118.00,116.79 L 118.57,116.15 L 119.11,115.48 L 119.63,114.79 L 120.13,114.07 L 120.61,113.33 L 121.07,112.56 L 121.50,111.77 L 121.92,110.95 L 122.32,110.11 L 122.70,109.25 L 123.06,108.36 L 123.41,107.45 L 123.74,106.51 L 124.06,105.56 L 124.37,104.58 L 124.67,103.59 L 124.96,102.57 L 125.24,101.54 L 125.51,100.49 L 125.78,99.43 L 126.05,98.35 L 126.31,97.26 L 126.57,96.16 L 126.82,95.05 L 127.08,93.93 L 127.35,92.80 L 127.61,91.67 L 127.88,90.53 L 128.16,89.40 L 128.44,88.26 L 128.74,87.12 L 129.04,85.98 L 129.36,84.85 L 129.68,83.72 L 130.02,82.61 L 130.38,81.50 L 130.75,80.40 L 131.13,79.31 L 131.53,78.24 L 131.95,77.19 L 132.39,76.15 L 132.85,75.13 L 133.33,74.14 L 133.83,73.16 L 134.35,72.21 L 134.89,71.28 L 135.46,70.38 L 136.04,69.51 L 136.65,68.66 L 137.28,67.85 L 137.94,67.06 L 138.62,66.31 L 139.32,65.59 L 140.04,64.91 L 140.79,64.26 L 141.56,63.64 L 142.35,63.06 L 143.16,62.52 L 144.00,62.01 L 144.86,61.54 L 145.73,61.11 L 146.63,60.71 L 147.55,60.35 L 148.49,60.03 L 149.44,59.75 L 150.42,59.50 L 151.41,59.29 L 152.41,59.11 L 153.43,58.97 L 154.47,58.87 L 155.52,58.80 L 156.58,58.76 L 157.66,58.75 L 158.74,58.78 L 159.84,58.83 L 160.94,58.92 L 162.05,59.03 L 163.17,59.17 L 164.29,59.33 L 165.42,59.52 L 166.55,59.73 L 167.69,59.96 L 168.83,60.20 L 169.96,60.47 L 171.10,60.75 L 172.24,61.04 L 173.37,61.35 L 174.51,61.66 L 175.64,61.99 L 176.76,62.31 L 177.88,62.65 L 178.99,62.98 L 180.10,63.32 L 181.20,63.66 L 182.29,63.99 L 183.38,64.31 L 184.45,64.63 L 185.52,64.94 L 186.57,65.24 L 187.61,65.53 L 188.65,65.80 L 189.67,66.06 L 190.68,66.30 L 191.68,66.52 L 192.67,66.72 L 193.64,66.90 L 194.61,67.05 L 195.56,67.18 L 196.50,67.28 L 197.43,67.36 L 198.34,67.41 L 199.25,67.43 L 200.14,67.41 L 201.02,67.37 L 201.89,67.30 L 202.75,67.19 L 203.60,67.05 L 204.44,66.88 L 205.27,66.68 L 206.09,66.44 L 206.91,66.17 L 207.71,65.86 L 208.51,65.53 L 209.30,65.15 L 210.08,64.75 L 210.86,64.31 L 211.64,63.84 L 212.41,63.34 L 213.17,62.81 L 213.93,62.26 L 214.69,61.67 L 215.45,61.05 L 216.21,60.41 L 216.96,59.74 L 217.72,59.05 L 218.47,58.34 L 219.23,57.61 L 219.99,56.85 L 220.75,56.08 L 221.51,55.30 L 222.28,54.50 L 223.05,53.68 L 223.83,52.86 L 224.61,52.03 L 225.39,51.19 L 226.18,50.34 L 226.98,49.49 L 227.78,48.64 L 228.59,47.80 L 229.41,46.95 L 230.23,46.11 L 231.06,45.28 L 231.90,44.46 L 232.74,43.65 L 233.60,42.85 L 234.46,42.06 L 235.33,41.30 L 236.20,40.55 L 237.09,39.83 L 237.98,39.12 L 238.88,38.44 L 239.78,37.79 L 240.70,37.17 L 241.62,36.57 L 242.54,36.01 L 243.48,35.48 L 244.42,34.98 L 245.36,34.51 L 246.31,34.09 L 247.27,33.70 L 248.22,33.35 L 249.19,33.03 L 250.15,32.76 L 251.12,32.53 L 252.10,32.34 L 253.07,32.19 L 254.05,32.09 L 255.02,32.02 L 256.00,32.00 L 256.98,32.02 L 257.95,32.09 L 258.93,32.19 L 259.90,32.34 L 260.88,32.53 L 261.85,32.76 L 262.81,33.03 L 263.78,33.35 L 264.73,33.70 L 265.69,34.09 L 266.64,34.51 L 267.58,34.98 L 268.52,35.48 L 269.46,36.01 L 270.38,36.57 L 271.30,37.17 L 272.22,37.79 L 273.12,38.44 L 274.02,39.12 L 274.91,39.83 L 275.80,40.55 L 276.67,41.30 L 277.54,42.06 L 278.40,42.85 L 279.26,43.65 L 280.10,44.46 L 280.94,45.28 L 281.77,46.11 L 282.59,46.95 L 283.41,47.80 L 284.22,48.64 L 285.02,49.49 L 285.82,50.34 L 286.61,51.19 L 287.39,52.03 L 288.17,52.86 L 288.95,53.68 L 289.72,54.50 L 290.49,55.30 L 291.25,56.08 L 292.01,56.85 L 292.77,57.61 L 293.53,58.34 L 294.28,59.05 L 295.04,59.74 L 295.79,60.41 L 296.55,61.05 L 297.31,61.67 L 298.07,62.26 L 298.83,62.81 L 299.59,63.34 L 300.36,63.84 L 301.14,64.31 L 301.92,64.75 L 302.70,65.15 L 303.49,65.53 L 304.29,65.86 L 305.09,66.17 L 305.91,66.44 L 306.73,66.68 L 307.56,66.88 L 308.40,67.05 L 309.25,67.19 L 310.11,67.30 L 310.98,67.37 L 311.86,67.41 L 312.75,67.43 L 313.66,67.41 L 314.57,67.36 L 315.50,67.28 L 316.44,67.18 L 317.39,67.05 L 318.36,66.90 L 319.33,66.72 L 320.32,66.52 L 321.32,66.30 L 322.33,66.06 L 323.35,65.80 L 324.39,65.53 L 325.43,65.24 L 326.48,64.94 L 327.55,64.63 L 328.62,64.31 L 329.71,63.99 L 330.80,63.66 L 331.90,63.32 L 333.01,62.98 L 334.12,62.65 L 335.24,62.31 L 336.36,61.99 L 337.49,61.66 L 338.63,61.35 L 339.76,61.04 L 340.90,60.75 L 342.04,60.47 L 343.17,60.20 L 344.31,59.96 L 345.45,59.73 L 346.58,59.52 L 347.71,59.33 L 348.83,59.17 L 349.95,59.03 L 351.06,58.92 L 352.16,58.83 L 353.26,58.78 L 354.34,58.75 L 355.42,58.76 L 356.48,58.80 L 357.53,58.87 L 358.57,58.97 L 359.59,59.11 L 360.59,59.29 L 361.58,59.50 L 362.56,59.75 L 363.51,60.03 L 364.45,60.35 L 365.37,60.71 L 366.27,61.11 L 367.14,61.54 L 368.00,62.01 L 368.84,62.52 L 369.65,63.06 L 370.44,63.64 L 371.21,64.26 L 371.96,64.91 L 372.68,65.59 L 373.38,66.31 L 374.06,67.06 L 374.72,67.85 L 375.35,68.66 L 375.96,69.51 L 376.54,70.38 L 377.11,71.28 L 377.65,72.21 L 378.17,73.16 L 378.67,74.14 L 379.15,75.13 L 379.61,76.15 L 380.05,77.19 L 380.47,78.24 L 380.87,79.31 L 381.25,80.40 L 381.62,81.50 L 381.98,82.61 L 382.32,83.72 L 382.64,84.85 L 382.96,85.98 L 383.26,87.12 L 383.56,88.26 L 383.84,89.40 L 384.12,90.53 L 384.39,91.67 L 384.65,92.80 L 384.92,93.93 L 385.18,95.05 L 385.43,96.16 L 385.69,97.26 L 385.95,98.35 L 386.22,99.43 L 386.49,100.49 L 386.76,101.54 L 387.04,102.57 L 387.33,103.59 L 387.63,104.58 L 387.94,105.56 L 388.26,106.51 L 388.59,107.45 L 388.94,108.36 L 389.30,109.25 L 389.68,110.11 L 390.08,110.95 L 390.50,111.77 L 390.93,112.56 L 391.39,113.33 L 391.87,114.07 L 392.37,114.79 L 392.89,115.48 L 393.43,116.15 L 394.00,116.79 L 394.59,117.41 L 395.21,118.00 L 395.85,118.57 L 396.52,119.11 L 397.21,119.63 L 397.93,120.13 L 398.67,120.61 L 399.44,121.07 L 400.23,121.50 L 401.05,121.92 L 401.89,122.32 L 402.75,122.70 L 403.64,123.06 L 404.55,123.41 L 405.49,123.74 L 406.44,124.06 L 407.42,124.37 L 408.41,124.67 L 409.43,124.96 L 410.46,125.24 L 411.51,125.51 L 412.57,125.78 L 413.65,126.05 L 414.74,126.31 L 415.84,126.57 L 416.95,126.82 L 418.07,127.08 L 419.20,127.35 L 420.33,127.61 L 421.47,127.88 L 422.60,128.16 L 423.74,128.44 L 424.88,128.74 L 426.02,129.04 L 427.15,129.36 L 428.28,129.68 L 429.39,130.02 L 430.50,130.38 L 431.60,130.75 L 432.69,131.13 L 433.76,131.53 L 434.81,131.95 L 435.85,132.39 L 436.87,132.85 L 437.86,133.33 L 438.84,133.83 L 439.79,134.35 L 440.72,134.89 L 441.62,135.46 L 442.49,136.04 L 443.34,136.65 L 444.15,137.28 L 444.94,137.94 L 445.69,138.62 L 446.41,139.32 L 447.09,140.04 L 447.74,140.79 L 448.36,141.56 L 448.94,142.35 L 449.48,143.16 L 449.99,144.00 L 450.46,144.86 L 450.89,145.73 L 451.29,146.63 L 451.65,147.55 L 451.97,148.49 L 452.25,149.44 L 452.50,150.42 L 452.71,151.41 L 452.89,152.41 L 453.03,153.43 L 453.13,154.47 L 453.20,155.52 L 453.24,156.58 L 453.25,157.66 L 453.22,158.74 L 453.17,159.84 L 453.08,160.94 L 452.97,162.05 L 452.83,163.17 L 452.67,164.29 L 452.48,165.42 L 452.27,166.55 L 452.04,167.69 L 451.80,168.83 L 451.53,169.96 L 451.25,171.10 L 450.96,172.24 L 450.65,173.37 L 450.34,174.51 L 450.01,175.64 L 449.69,176.76 L 449.35,177.88 L 449.02,178.99 L 448.68,180.10 L 448.34,181.20 L 448.01,182.29 L 447.69,183.38 L 447.37,184.45 L 447.06,185.52 L 446.76,186.57 L 446.47,187.61 L 446.20,188.65 L 445.94,189.67 L 445.70,190.68 L 445.48,191.68 L 445.28,192.67 L 445.10,193.64 L 444.95,194.61 L 444.82,195.56 L 444.72,196.50 L 444.64,197.43 L 444.59,198.34 L 444.57,199.25 L 444.59,200.14 L 444.63,201.02 L 444.70,201.89 L 444.81,202.75 L 444.95,203.60 L 445.12,204.44 L 445.32,205.27 L 445.56,206.09 L 445.83,206.91 L 446.14,207.71 L 446.47,208.51 L 446.85,209.30 L 447.25,210.08 L 447.69,210.86 L 448.16,211.64 L 448.66,212.41 L 449.19,213.17 L 449.74,213.93 L 450.33,214.69 L 450.95,215.45 L 451.59,216.21 L 452.26,216.96 L 452.95,217.72 L 453.66,218.47 L 454.39,219.23 L 455.15,219.99 L 455.92,220.75 L 456.70,221.51 L 457.50,222.28 L 458.32,223.05 L 459.14,223.83 L 459.97,224.61 L 460.81,225.39 L 461.66,226.18 L 462.51,226.98 L 463.36,227.78 L 464.20,228.59 L 465.05,229.41 L 465.89,230.23 L 466.72,231.06 L 467.54,231.90 L 468.35,232.74 L 469.15,233.60 L 469.94,234.46 L 470.70,235.33 L 471.45,236.20 L 472.17,237.09 L 472.88,237.98 L 473.56,238.88 L 474.21,239.78 L 474.83,240.70 L 475.43,241.62 L 475.99,242.54 L 476.52,243.48 L 477.02,244.42 L 477.49,245.36 L 477.91,246.31 L 478.30,247.27 L 478.65,248.22 L 478.97,249.19 L 479.24,250.15 L 479.47,251.12 L 479.66,252.10 L 479.81,253.07 L 479.91,254.05 L 479.98,255.02 L 480.00,256.00 Z" fill="#0F2649"/>
  <circle cx="256" cy="256" r="152" fill="none" stroke="#FFFFFF" stroke-opacity="0.18" stroke-width="10"/>
  <circle cx="256" cy="256" r="150" fill="#46536C" fill-opacity="0.55"/>
  <path d="M 178,262 L 232,314 L 340,196" fill="none" stroke="#FFFFFF" stroke-width="40" stroke-linecap="round" stroke-linejoin="round"/>
</svg>
